<svg width="178" height="74" viewBox="0 0 178 74" fill="none" xmlns="http://www.w3.org/2000/svg">
<path d="M24.6102 39.9818C24.715 39.4396 25.2396 39.085 25.7818 39.1898L29.7091 39.949C30.2513 40.0539 30.6059 40.5784 30.5011 41.1207L27.8438 54.8662C27.7389 55.4084 27.2144 55.763 26.6721 55.6582L22.7449 54.8989C22.2026 54.7941 21.848 54.2696 21.9528 53.7273L24.6102 39.9818Z" fill="#5486E4"/>
<rect x="26.25" y="32" width="6" height="6" rx="1" transform="rotate(10.94 26.25 32)" fill="#5486E4"/>
<path d="M24.1343 61.1119C23.8839 61.4024 23.4131 61.3144 23.2846 60.9531L21.7648 56.6821C21.6355 56.3189 21.9487 55.9522 22.3277 56.023L26.8074 56.8604C27.1865 56.9312 27.346 57.3863 27.0943 57.6783L24.1343 61.1119Z" fill="#5486E4"/>
<path d="M65.0398 53.6901C64.4912 53.7536 63.9874 53.359 64.0027 52.8069C64.0222 52.0988 64.1492 51.3958 64.3809 50.7223C64.7215 49.7327 65.2796 48.832 66.0143 48.0865C66.7489 47.3411 67.6414 46.7698 68.626 46.4149C69.296 46.1733 69.997 46.0361 70.7048 46.0062C71.2566 45.9829 71.6585 46.4809 71.603 47.0304L71.5887 47.1724C71.5331 47.7219 71.0391 48.1116 70.4899 48.1696C70.1029 48.2105 69.721 48.2979 69.3527 48.4307C68.6695 48.677 68.0502 49.0733 67.5405 49.5906C67.0307 50.1079 66.6434 50.7328 66.4071 51.4196C66.2797 51.7898 66.1979 52.1729 66.1627 52.5605C66.1127 53.1105 65.7303 53.6101 65.1817 53.6737L65.0398 53.6901Z" fill="#5486E4"/>
<path d="M141.04 53.6901C140.491 53.7536 139.987 53.359 140.003 52.8069C140.022 52.0988 140.149 51.3958 140.381 50.7223C140.721 49.7327 141.28 48.832 142.014 48.0865C142.749 47.3411 143.641 46.7698 144.626 46.4149C145.296 46.1733 145.997 46.0361 146.705 46.0062C147.257 45.9829 147.659 46.4809 147.603 47.0304L147.589 47.1724C147.533 47.7219 147.039 48.1116 146.49 48.1696C146.103 48.2105 145.721 48.2979 145.353 48.4307C144.669 48.677 144.05 49.0733 143.54 49.5906C143.031 50.1079 142.643 50.7328 142.407 51.4196C142.28 51.7898 142.198 52.1729 142.163 52.5605C142.113 53.1105 141.73 53.6101 141.182 53.6737L141.04 53.6901Z" fill="#5486E4"/>
<path d="M5.092 69.67C3.93067 69.67 3.015 69.402 2.345 68.866C1.675 68.2853 1.34 67.5037 1.34 66.521C1.34 66.1637 1.36233 65.8733 1.407 65.65L5.829 40.391C6.94567 34.093 9.49167 29.3583 13.467 26.187C17.487 23.0157 22.914 21.43 29.748 21.43C33.5 21.43 36.7383 22.0777 39.463 23.373C42.2323 24.6237 44.354 26.4103 45.828 28.733C47.3467 31.0557 48.106 33.758 48.106 36.84C48.106 37.8673 47.9943 39.051 47.771 40.391L43.349 65.65C43.1257 66.9007 42.545 67.8833 41.607 68.598C40.669 69.3127 39.53 69.67 38.19 69.67C37.0287 69.67 36.0907 69.3797 35.376 68.799C34.706 68.2183 34.371 67.4367 34.371 66.454C34.371 66.0967 34.3933 65.8287 34.438 65.65L38.927 40.19C39.1503 38.9393 39.262 37.8897 39.262 37.041C39.262 31.3237 35.8227 28.465 28.944 28.465C25.0133 28.465 21.842 29.47 19.43 31.48C17.018 33.49 15.477 36.3933 14.807 40.19L10.318 65.65C10.0947 66.856 9.49167 67.8387 8.509 68.598C7.571 69.3127 6.432 69.67 5.092 69.67ZM69.7004 69.67C66.1271 69.67 62.9781 69.0893 60.2534 67.928C57.5734 66.7667 55.4964 65.114 54.0224 62.97C52.5484 60.826 51.8114 58.347 51.8114 55.533C51.8114 51.6023 52.7494 48.1407 54.6254 45.148C56.5461 42.1107 59.2037 39.7433 62.5984 38.046C66.0377 36.3487 69.9461 35.5 74.3234 35.5C77.8967 35.5 81.0234 36.0807 83.7034 37.242C86.4281 38.4033 88.5274 40.056 90.0014 42.2C91.5201 44.344 92.2794 46.8007 92.2794 49.57C92.2794 53.5007 91.3191 56.9847 89.3984 60.022C87.5224 63.0593 84.8647 65.4267 81.4254 67.124C78.0307 68.8213 74.1224 69.67 69.7004 69.67ZM70.3034 62.702C74.2341 62.702 77.3831 61.563 79.7504 59.285C82.1624 56.9623 83.3684 53.9027 83.3684 50.106C83.3684 47.6047 82.5644 45.7063 80.9564 44.411C79.3484 43.1157 76.9811 42.468 73.8544 42.468C71.2637 42.468 68.9634 43.004 66.9534 44.076C64.9881 45.1033 63.4471 46.5773 62.3304 48.498C61.2584 50.374 60.7224 52.5403 60.7224 54.997C60.7224 57.4983 61.5264 59.419 63.1344 60.759C64.7871 62.0543 67.1767 62.702 70.3034 62.702ZM109.726 59.486C109.681 59.62 109.659 59.821 109.659 60.089C109.659 60.8483 109.927 61.4737 110.463 61.965C110.999 62.4563 111.691 62.702 112.54 62.702C113.344 62.702 114.058 62.5903 114.684 62.367C115.309 62.099 116.001 61.6747 116.761 61.094C117.877 60.2007 118.815 59.754 119.575 59.754C120.289 59.754 120.982 60.1113 121.652 60.826C122.366 61.496 122.724 62.2107 122.724 62.97C122.724 63.7293 122.344 64.511 121.585 65.315C120.2 66.6997 118.547 67.7717 116.627 68.531C114.751 69.2903 112.741 69.67 110.597 69.67C107.649 69.67 105.281 68.8883 103.495 67.325C101.753 65.717 100.882 63.573 100.882 60.893C100.882 60.1783 100.949 59.4637 101.083 58.749L103.83 43.071H101.083C99.8766 43.071 98.9163 42.8253 98.2016 42.334C97.5316 41.8427 97.1966 41.1503 97.1966 40.257C97.1966 39.0063 97.6433 38.0237 98.5366 37.309C99.4746 36.5497 100.725 36.17 102.289 36.17H105.036L106.845 26.053C107.068 24.8023 107.604 23.8197 108.453 23.105C109.301 22.3903 110.396 22.033 111.736 22.033C112.986 22.033 113.947 22.3233 114.617 22.904C115.331 23.4847 115.689 24.2887 115.689 25.316C115.689 25.6287 115.666 25.8743 115.622 26.053L113.813 36.17H120.245C121.451 36.17 122.389 36.4157 123.059 36.907C123.773 37.3983 124.131 38.0907 124.131 38.984C124.131 40.2347 123.662 41.2397 122.724 41.999C121.83 42.7137 120.602 43.071 119.039 43.071H112.607L109.726 59.486ZM145.206 69.67C141.633 69.67 138.484 69.0893 135.759 67.928C133.079 66.7667 131.002 65.114 129.528 62.97C128.054 60.826 127.317 58.347 127.317 55.533C127.317 51.6023 128.255 48.1407 130.131 45.148C132.052 42.1107 134.71 39.7433 138.104 38.046C141.544 36.3487 145.452 35.5 149.829 35.5C153.403 35.5 156.529 36.0807 159.209 37.242C161.934 38.4033 164.033 40.056 165.507 42.2C167.026 44.344 167.785 46.8007 167.785 49.57C167.785 53.5007 166.825 56.9847 164.904 60.022C163.028 63.0593 160.371 65.4267 156.931 67.124C153.537 68.8213 149.628 69.67 145.206 69.67ZM145.809 62.702C149.74 62.702 152.889 61.563 155.256 59.285C157.668 56.9623 158.874 53.9027 158.874 50.106C158.874 47.6047 158.07 45.7063 156.462 44.411C154.854 43.1157 152.487 42.468 149.36 42.468C146.77 42.468 144.469 43.004 142.459 44.076C140.494 45.1033 138.953 46.5773 137.836 48.498C136.764 50.374 136.228 52.5403 136.228 54.997C136.228 57.4983 137.032 59.419 138.64 60.759C140.293 62.0543 142.683 62.702 145.809 62.702Z" fill="#5486E4"/>
</svg>
