<svg width="72" height="72" viewBox="0 0 72 72" fill="none" xmlns="http://www.w3.org/2000/svg">
<path d="M7.6 72C5.86667 72 4.5 71.6 3.5 70.8C2.5 69.9333 2 68.7667 2 67.3C2 66.7667 2.03333 66.3333 2.1 66L8.7 28.3C10.3667 18.9 14.1667 11.8333 20.1 7.09999C26.1 2.36666 34.2 -3.8147e-06 44.4 -3.8147e-06C50 -3.8147e-06 54.8333 0.966662 58.9 2.89999C63.0333 4.76666 66.2 7.43333 68.4 10.9C70.6667 14.3667 71.8 18.4 71.8 23C71.8 24.5333 71.6333 26.3 71.3 28.3L64.7 66C64.3667 67.8667 63.5 69.3333 62.1 70.4C60.7 71.4667 59 72 57 72C55.2667 72 53.8667 71.5667 52.8 70.7C51.8 69.8333 51.3 68.6667 51.3 67.2C51.3 66.6667 51.3333 66.2667 51.4 66L58.1 28C58.4333 26.1333 58.6 24.5667 58.6 23.3C58.6 14.7667 53.4667 10.5 43.2 10.5C37.3333 10.5 32.6 12 29 15C25.4 18 23.1 22.3333 22.1 28L15.4 66C15.0667 67.8 14.1667 69.2667 12.7 70.4C11.3 71.4667 9.6 72 7.6 72Z" fill="#3C3C3C"/>
<path d="M35.4743 32.211C35.5886 31.6707 36.1222 31.3106 36.6661 31.4066L44.1236 32.7236C44.6675 32.8196 45.0157 33.3355 44.9013 33.8758L40.4555 54.883C40.3412 55.4233 39.8076 55.7834 39.2637 55.6874L31.8062 54.3704C31.2623 54.2744 30.9141 53.7585 31.0284 53.2182L35.4743 32.211Z" fill="#3C3C3C"/>
<rect width="9.57294" height="8.80215" rx="1" transform="matrix(0.984767 0.17388 -0.207018 0.978337 38.0016 21)" fill="#3C3C3C"/>
<path d="M34.2679 63.925C34.0122 64.1959 33.5661 64.1198 33.4349 63.7828L30.6825 56.7171C30.5416 56.3555 30.8645 55.9702 31.2528 56.0365L39.3658 57.4218C39.7541 57.4881 39.9028 57.954 39.6285 58.2447L34.2679 63.925Z" fill="#3C3C3C"/>
</svg>
